<svg width="26" height="26" viewBox="0 0 26 26" fill="none" xmlns="http://www.w3.org/2000/svg">
<path d="M24.3762 13.2527C24.3762 12.3174 24.2988 11.6349 24.1312 10.9271H13.2334V15.1485H19.6302C19.5012 16.1975 18.8048 17.7774 17.2572 18.839L17.2355 18.9803L20.6812 21.5963L20.9199 21.6196C23.1123 19.6353 24.3762 16.7157 24.3762 13.2527Z" fill="#00AA11"/>
<path d="M13.2326 24.375C16.3664 24.375 18.9973 23.3638 20.919 21.6197L17.2563 18.839C16.2762 19.5089 14.9607 19.9766 13.2326 19.9766C10.1631 19.9766 7.55802 17.9923 6.62936 15.2496L6.49324 15.261L2.91038 17.9784L2.86353 18.106C4.77223 21.8218 8.69286 24.375 13.2326 24.375Z" fill="#34A853"/>
<path d="M6.63013 15.2497C6.3851 14.542 6.24329 13.7836 6.24329 13C6.24329 12.2163 6.3851 11.458 6.61724 10.7503L6.61075 10.5995L2.98298 7.8385L2.86428 7.89383C2.07761 9.43579 1.62622 11.1674 1.62622 13C1.62622 14.8326 2.07761 16.5641 2.86428 18.1061L6.63013 15.2497Z" fill="#FBBC05"/>
<path d="M13.2326 6.0233C15.4122 6.0233 16.8824 6.94594 17.7207 7.71696L20.9965 4.5825C18.9846 2.74987 16.3665 1.625 13.2326 1.625C8.69289 1.625 4.77224 4.17804 2.86353 7.89384L6.61649 10.7503C7.55805 8.00763 10.1632 6.0233 13.2326 6.0233Z" fill="#EB4335"/>
</svg>
